<svg version="1.1" id="Contours" xmlns="http://www.w3.org/2000/svg" x="0" y="0" width="865.544" height="865.544" viewBox="0 0 865.544 889.974" xml:space="preserve" stroke="#000" fill="none" stroke-linecap="round" stroke-linejoin="round"><path class="selected" fill="#000" stroke="none" d="M409.827 637.653c-8.25-10.769-16.036-21.461-24.347-31.728-3.733-4.611-6.927-10.731-14.52-9.998-.908.087-1.988.26-2.642.807-4.851 4.052-9.7 8.116-14.388 12.355-8.392 7.587-16.552 15.433-25.023 22.93-15.698 13.889-31.462 27.706-47.367 41.358-11.87 10.187-24.045 20.018-36.002 30.104-5.72 4.826-11.361 9.759-16.844 14.852-11.583 10.76-22.992 21.71-34.58 32.465-2.922 2.711-6.342 4.878-9.372 7.482-5.722 4.918-6.315 11.266-4.098 17.908a235.594 235.594 0 0 0 7.63 19.83c3.893 8.893 8.716 17.408 12.18 26.451a699.77 699.77 0 0 1 14.99 43.278c2.693 8.692-2.473 19.35-10.319 22.961-2.214 1.02-5.16 1.594-7.47 1.065-11.343-2.596-22.088-6.823-32.298-12.511-9.587-5.341-19.613-9.91-29.075-15.452-10.517-6.16-20.798-12.766-30.855-19.657a2298.116 2298.116 0 0 1-50.685-35.73c-5.765-4.184-10.926-9.231-16.18-14.081-10.64-9.82-21.751-19.228-31.495-29.878-5.855-6.4-8.33-14.829-6.447-24.314 1.97-9.924 9.58-15.849 14.863-23.323 5.244-7.419 12.054-13.733 18.191-20.519 12.722-14.065 25.514-28.067 38.16-42.2 9.762-10.908 19.408-21.921 28.994-32.985 12.202-14.082 24.255-28.293 36.445-42.386a844.765 844.765 0 0 1 16.616-18.615c8.777-9.56 17.758-18.936 26.456-28.567 4.304-4.766 8.885-9.513 12.07-15.006 5.253-9.058 9.596-18.656 14.1-28.133 4.628-9.74 9.032-19.587 13.453-29.423 3.598-8.007 6.952-16.125 10.641-24.089 4.343-9.374 9.005-18.6 13.383-27.957 2.74-5.857 5.099-11.892 7.83-17.753 5.337-11.459 10.853-22.835 16.218-34.282 1.96-4.181 3.695-8.468 5.537-12.704 6.88-15.816 13.719-31.65 20.66-47.439 3.347-7.615 6.338-15.463 10.475-22.638 5.548-9.623 11.63-19.012 18.304-27.882 3.792-5.039 9.086-9.005 13.95-13.165 7.337-6.274 14.967-12.203 22.328-18.45a518.396 518.396 0 0 0 17.901-15.914c4.649-4.33 5.985-13.184 3.484-19.29-.7-1.712-.742-3.691-1.104-5.544-1.177-6.01-2.415-12.01-3.524-18.034-.603-3.277-.881-6.614-1.495-9.89-1.605-8.56-7.328-12.406-15.467-14.152-9.109-1.954-18.09-4.531-27.081-7.003-15.402-4.233-30.87-8.268-46.104-13.046-7.302-2.29-14.614-5.326-21.042-9.409-7.03-4.465-4.877-17.843 1.624-21.328 4.3-2.306 9.125-3.83 13.884-5.04 8.786-2.234 17.667-4.128 26.564-5.886 8.052-1.59 16.184-2.774 24.266-4.214 3.078-.549 6.136-1.24 9.171-1.996 7.849-1.956 15.802-3.618 23.45-6.186 2.652-.89 5.592-3.698 6.57-6.315 4.107-10.982 7.519-22.225 11.186-33.371C383.601 7.865 394.73-.167 401.783.003c13.397.322 27.012-.036 40.09 2.34 8.894 1.617 17.729-.106 26.2 1.788 9.273 2.074 18.798.098 27.634 2.147 10.21 2.367 20.385-.097 30.207 1.872 9.45 1.894 19.092.19 28.128 2.168 7.561 1.655 15.152-.095 22.187 1.851 8.22 2.274 17.49-.161 24.858 6.46 5.018 4.512 8.064 9.522 8.409 15.995.362 6.813.08 13.661.081 20.494.001 5.314 3.881 10.906 8.6 12.805 14.57 5.863 29.18 11.637 43.615 17.817 5.951 2.548 11.367 6.325 17.26 9.035 7.544 3.468 6.937 9.976 6.424 16.26-.428 5.242-4.834 8.14-9.003 9.672-6.538 2.404-13.537 3.57-20.358 5.187-11.387 2.7-22.856 5.085-34.158 8.098-7.694 2.051-9.84 10.415-4.274 16.36 3.043 3.251 7.6 5.206 10.25 8.678 4.513 5.912 9.908 11.045 11.983 19.034 2.141 8.244.306 14.907-3.38 21.665-3.054 5.6-8.464 8.68-14 11.073-7.263 3.138-10.782 8.071-11.116 16.07-.206 4.931-1.876 9.816-3.03 14.69a327.936 327.936 0 0 1-3.527 13.535c-2.482 8.792-8.455 14.115-16.603 17.969-5.219 2.468-10.364 2.722-15.832 2.896-15.618.498-31.237 1.126-46.839 1.996-9.417.525-14.58 10.044-11.446 20.087.84 2.69 1.54 5.643 1.335 8.404-.815 10.955 3.794 20.015 9.772 28.472 3.253 4.602 8.296 6.711 14.042 7 12.059.607 24.366.016 36.107 2.302 15.651 3.046 31.178 1.048 46.735 1.556 16.815.548 33.662-.009 50.492.192 6.287.076 11.716-.968 17.045-4.911 7.393-5.471 16.21-8.292 25.24-10.155 4.916-1.014 9.866-1.885 14.738-3.075 1.42-.347 2.625-1.573 3.928-2.396-.977-1.51-1.723-4.084-2.97-4.356-7.19-1.564-8.702-8.214-9.647-13.074-1.941-9.975-2.434-20.391-2.163-30.59.23-8.658 2.354-17.267 3.67-25.894.669-4.38 1.24-8.783 2.146-13.116 1.534-7.337 3.02-14.703 5.022-21.919 4.141-14.924 7.71-30.095 13.145-44.552 8.978-23.883 18.173-47.891 33.983-68.343 4.113-5.32 10.078-9.68 16.043-12.907 3.12-1.688 8.262-.634 12.176.388 5.018 1.309 9.922 3.465 14.477 5.978 2.487 1.372 4.732 3.924 6.091 6.474 7.77 14.577 5.215 30.513 4.712 45.893-.33 10.059-3.65 20.026-5.694 30.021-2.293 11.208-3.993 22.592-7.152 33.554-4.357 15.113-9.006 30.25-15.07 44.733-6.246 14.916-14.548 28.96-21.543 43.58-3.607 7.537-8.68 13.775-14.624 19.407-2.165 2.052-4.847 3.552-7.253 5.358-2.171 1.63-1.6 2.944.637 3.817 2.297.896 4.665 1.61 6.971 2.484 19.087 7.228 34.267 19.185 43.963 37.346 3.972 7.44 7.221 15.3 7.095 24.056-.02 1.296-.288 2.872.318 3.847 4.005 6.45.154 12.517-1.871 17.87-2.891 7.64-8.588 14.154-15.937 18.209-7.953 4.387-15.839 9.025-25.241 10.31-11.398 1.557-22.697 3.852-34.018 5.943-1.63.3-3.785.799-4.593 1.969-3.427 4.96-8.793 4.416-13.527 4.853-8.385.775-9.114.545-9.979 8.04-.614 5.319-1.336 11.088 2.257 15.967.86 1.169 2.112 2.96 3.088 2.901 1.215-.073 2.83-1.546 3.4-2.808 2.216-4.907 4.09-9.969 6.087-14.974.342-.859.56-1.79 1.031-2.567.472-.777 1.19-1.405 1.8-2.098.39.838 1.175 1.71 1.109 2.51-.677 8.194-4.591 15.185-9.15 21.65-2.934 4.161-8.126 3.681-10.41-.79-2.81-5.5-4.736-11.414-2.801-17.843.456-1.515.514-3.236.363-4.825-.16-1.7-.784-3.357-1.206-5.033-.911 1.743-2.722 3.564-2.578 5.215.601 6.886-4.161 10.253-8.894 12.546-4.376 2.12-9.681 2.743-14.648 3.139-12.199.972-24.455 1.212-36.657 2.158-13.966 1.082-27.976 2.074-41.821 4.103-12.094 1.772-24.254 2.72-36.306 4.287-8.473 1.102-16.822 1.102-25.229 1.544-8.91.468-14.48 4.858-17.656 13.448-1.812 4.903-4.32 9.547-6.185 14.432-.52 1.362-.416 3.507.333 4.715 3.232 5.206 6.51 10.437 10.321 15.22 9.029 11.33 18.451 22.346 27.56 33.615 7.64 9.452 15.265 18.931 22.51 28.687 4.852 6.533 9.094 13.526 13.488 20.391 5.725 8.946 11.269 18.008 17.002 26.948 6.173 9.626 12.47 19.171 18.722 28.746 3.17 4.856 6.286 9.75 9.563 14.533 4.09 5.973 10.86 6.306 16.991 7.133 8.983 1.21 18.122 1.222 27.143 2.21 9.315 1.02 18.728 1.933 27.807 4.108 10.053 2.408 20.901 1.895 29.905 8.7 7.174 5.42 10.218 15.495 5.616 24.099-8.112 15.168-18.634 28.413-30.174 40.985-6.863 7.476-13.17 15.552-20.636 22.361-9.592 8.749-19.958 16.676-30.25 24.62-8.387 6.474-16.866 12.913-25.824 18.537-12.434 7.808-25.101 15.295-39.358 19.605-10.882 3.29-21.625-1.036-27.45-10.356-5.438-8.701-11.736-16.885-17.945-25.078-9.162-12.087-18.64-23.936-27.872-35.971-7.16-9.334-14.152-18.795-21.212-28.205-8.966-11.951-17.963-23.878-26.875-35.869-8.42-11.328-16.606-22.83-25.15-34.062-8.424-11.072-17.254-21.834-25.738-32.86-5.73-7.446-11.17-15.115-16.988-22.934m220.75-445.25c1.329-5.059 1.944-9.937-.824-14.92-4.795-8.631-12.396-14.081-20.309-19.399-1.772-1.19-3.284-3.64-3.732-5.76-1.083-5.135-1.372-10.432-2.16-15.637-.907-5.982.302-10.044 3.714-10.751 11.681-2.42 23.409-4.613 35.084-7.059 10.558-2.212 21.12-4.449 31.562-7.132 2.154-.553 3.79-3.125 5.665-4.767-1.658-1.691-3.019-4.01-5.028-4.962-6.95-3.294-14.122-6.121-21.216-9.111-15.039-6.34-30.188-12.436-45.03-19.207-2.84-1.295-7.804-1.128-7.818-6.797-.027-11.585-.662-23.167-.86-34.754-.066-3.881-1.443-6.592-5.36-7.192a235.683 235.683 0 0 0-17.165-2.007c-6.68-.525-13.4-.53-20.077-1.083-14.623-1.212-29.225-2.662-43.842-3.95a1600.1 1600.1 0 0 0-25.168-2.001c-14.415-1.04-28.831-2.06-43.253-2.99-7.02-.454-14.066-.535-21.079-1.07-5.574-.425-11.12-1.25-16.672-1.959-10.57-1.351-14.876 1.51-17.485 10.867-3.407 12.224-7.457 24.274-10.676 36.545-1.182 4.505-4.148 5.817-7.73 6.54-13.866 2.803-27.784 5.346-41.668 8.067-18.487 3.623-36.984 7.207-55.408 11.13-2.365.504-4.32 2.935-6.465 4.474 1.872 1.833 3.43 4.571 5.67 5.347 10.513 3.641 21.196 6.8 31.851 10.026 23.253 7.038 46.553 13.92 69.744 21.157 2.236.698 4.98 3.132 5.533 5.267 2.16 8.347 3.5 16.905 5.21 25.372 2.299 11.372 4.322 22.817 7.144 34.06 1.275 5.08-1.556 7.433-4.473 9.885-8.857 7.444-17.9 14.665-26.877 21.967-7.103 5.778-14.383 11.355-21.265 17.386-5.111 4.48-10.593 8.938-14.383 14.455-16.039 23.347-26.893 49.274-37.035 75.613-6.412 16.65-14.37 32.708-21.774 48.968-5.173 11.361-10.66 22.58-15.865 33.926-10.212 22.264-20.339 44.568-30.473 66.868-3.44 7.572-6.127 15.584-10.374 22.666-4.642 7.738-5.689 17.254-13.118 23.697-5.855 5.078-10.517 11.536-15.686 17.4-12.263 13.915-24.495 27.858-36.776 41.756-5.727 6.482-11.58 12.853-17.305 19.337-12.165 13.78-24.261 27.62-36.43 41.396-5.836 6.607-11.837 13.07-17.652 19.695-11.358 12.94-22.579 26-33.97 38.908-8.86 10.04-18.13 19.729-26.736 29.978-3.696 4.4-4.851 9.644-3.21 15.96 1.882 7.248 7.599 11.12 11.876 16.02 6.193 7.093 13.754 13.018 20.899 19.25 8.776 7.653 17.286 15.719 26.696 22.52 17.59 12.711 35.658 24.773 53.691 36.861 23.237 15.577 48.175 27.925 74.158 38.2 6.79 2.686 11.22-.144 10.81-7.399-.273-4.826-.977-9.867-2.72-14.332-9.847-25.245-20.194-50.295-30.069-75.53-2.418-6.178-4.216-12.709-5.361-19.242-1.044-5.957 4.423-8.263 8.142-11.496 11.674-10.15 23.209-20.459 34.787-30.719a77245.235 77245.235 0 0 0 44.24-39.239c11.943-10.6 23.867-21.222 35.82-31.812 14.38-12.74 28.821-25.412 43.163-38.196 10.492-9.353 20.856-18.851 31.297-28.263 7.547-6.803 7.563-6.788 14.246.6.872.965 1.788 1.902 2.564 2.94 7.41 9.924 14.705 19.934 22.206 29.787 9.181 12.06 18.623 23.925 27.783 36.002 12.965 17.096 25.71 34.36 38.673 51.459 10.98 14.483 22.214 28.773 33.189 43.26 13.05 17.228 25.955 34.566 38.903 51.872 11.799 15.772 23.61 31.534 35.33 47.365 3.868 5.224 9.657 8.727 13.424 7.307 3.306-1.245 6.525-2.818 9.6-4.567 14.17-8.058 28.93-15.297 42.236-24.607 14.967-10.472 29.212-22.189 42.63-34.597 11.503-10.635 21.73-22.728 31.888-34.712 6.945-8.195 13.137-17.092 19.04-26.086 4.507-6.864 1.9-9.803-5.437-12.103-6.889-2.159-14.439-2.164-21.675-3.267-12.68-1.933-25.335-4.03-38.015-5.965-9.267-1.415-18.579-3.857-27.832-3.69-9.496.17-13.97-3.988-18.093-11.7-6.237-11.669-13.676-22.698-20.68-33.95-8.912-14.316-17.402-28.929-26.986-42.782-11.105-16.054-22.91-31.65-34.952-47.02-11.028-14.079-22.634-27.714-34.268-41.304-5.256-6.14-5.35-6.99-.856-14.293 5.068-8.236 8.18-17.314 10.026-26.855.316-1.634 2.109-4.069 3.465-4.245 10.209-1.325 20.477-2.203 30.731-3.169 7.553-.71 15.122-1.249 22.666-2.03 12.121-1.254 24.224-2.689 36.343-3.962 7.214-.757 14.459-1.222 21.664-2.046 10.626-1.217 21.216-2.757 31.847-3.93 7.867-.87 15.795-1.198 23.66-2.086 8.968-1.014 10.118-3.165 7.06-11.909-.662-1.896-.982-3.936-1.82-5.744-1.835-3.965.494-4.977 3.621-5.274 7.882-.748 15.787-1.261 23.664-2.05 12.455-1.248 24.977-2.13 37.319-4.116 13.37-2.151 26.53-5.49 37.718-13.862 8.965-6.708 13.026-16.415 11.623-26.75-2.288-16.851-9.606-31.764-23.523-42.57-12.827-9.959-26.657-17.412-43.581-16.666-5.699.251-11.458.213-17.07 1.08-11.413 1.762-22.775 4.456-32.211 11.375-6.59 4.831-13.156 7.822-21.341 6.534-2.193-.346-4.383-.892-6.586-.965-12.358-.41-24.72-.725-37.08-1.032-14.36-.356-28.722-.623-43.08-1.04-3.535-.102-7.053-.703-10.587-.953-14.582-1.03-29.157-2.464-43.756-2.792-5.935-.134-9.285-2.39-11.875-7.063-.753-1.36-1.573-2.682-2.36-4.023-4.75-8.098-11.033-15.49-9.773-26.023.51-4.26-.732-8.702-.817-13.068-.155-8.053-.445-16.141.15-24.154.243-3.289 3.2-5.654 7.065-5.903 9.725-.626 19.44-1.457 29.17-1.948 10.02-.505 20.052-.89 30.082-.995 15.506-.161 22.902-6.462 25.508-20.868 1.903-10.52 4.008-21.005 5.97-31.516 1.124-6.022 4.25-9.557 10.629-10.797 6.627-1.287 12.438-4.542 16.382-11.362m196-51c-.636-10.618 1.764-21.454-2.919-31.788-2.342-5.17-7.004-7.588-10.846-4.302-4.022 3.44-8.106 7.082-11.134 11.363-14.327 20.256-24.284 42.773-31.959 66.2-6.362 19.42-11.85 39.151-16.985 58.937-2.57 9.905-3.874 20.195-5.036 30.393-.932 8.182-1.115 16.491-1.007 24.736.073 5.62.638 11.374 2.011 16.808 2.588 10.245 8.303 8.282 13.48 3.866 7.85-6.695 14.012-14.993 18.385-24.318 7.585-16.171 15.295-32.332 21.791-48.95 4.997-12.783 8.534-26.176 12.122-39.459 3.133-11.6 5.698-23.372 8.01-35.167 1.77-9.027 2.754-18.207 4.087-28.32m-88.5 172.5c2.7-4.197 2.147-8.533-1.323-11.02-.826-.593-2.195-1.838-2.046-2.127.567-1.097 1.518-2.167 2.593-2.77.76-.426 1.983.066 2.942-.13.72-.15 1.349-.742 2.018-1.137-.378-.589-.62-1.42-1.159-1.725-2.553-1.442-5.313-2.556-7.73-4.184-.93-.626-1.15-2.308-1.692-3.509 1.255-.343 2.505-.925 3.767-.953 1.012-.022 2.117 1.05 3.038.876 1.11-.21 2.068-1.222 3.092-1.887-1.343-1.478-2.479-3.255-4.08-4.357-2.007-1.382-4.46-2.099-6.58-3.34-.646-.379-1.33-1.751-1.103-2.295.284-.681 1.54-1.436 2.288-1.355 2.16.234 4.39.597 6.382 1.42 2.456 1.015 3.697.384 4.079-2.086 1.041-6.742 1.746-13.548 3.071-20.232 2.587-13.046 4.65-26.285 8.493-38.97 5.403-17.827 12.237-35.22 18.448-52.803a183.305 183.305 0 0 1 19.497-39.396c4.3-6.576 4.327-6.536-.385-11.44-.686-.714-1.16-1.634-1.731-2.458 1.178-.374 2.422-1.195 3.52-1.032 2.597.388 5.105 1.346 7.693 1.845.724.14 1.601-.515 2.408-.805-.582-1.043-.922-2.654-1.791-3.026-2.969-1.27-6.066-2.613-9.223-2.974-3.966-.455-8.278-1.1-11.051 3.379-4.527 7.313-10.117 14.091-13.759 21.803-7.355 15.576-14.06 31.488-20.339 47.532-3.932 10.047-6.688 20.563-9.811 30.917a989.853 989.853 0 0 0-7.928 27.696c-1.263 4.676-2.389 9.432-3.02 14.225-.796 6.039-.954 12.16-1.517 18.233-.412 4.456-1.47 8.893-1.467 13.338.007 8.358.594 16.714.898 25.072.203 5.559 7.099 10.983 13.508 9.676zM846.327 92.153c4.668 8.003 2.658 16.794 4.009 25.045.645 3.942-1.19 8.323-2.126 12.454-.129.568-1.551 1.114-2.387 1.132-.401.01-1.237-1.27-1.185-1.91.693-8.504.018-16.826-3.07-24.842-3.155-8.19-4.993-16.978-11.112-23.82-1.767-1.977-3.33-4.231-4.513-6.595-.6-1.198-.146-2.924-.169-4.411 1.605.07 3.944-.518 4.691.318a164.96 164.96 0 0 1 11.047 13.824c1.866 2.605 3.065 5.688 4.815 8.805zM850.827 54.153c7.567 5.5 11.001 13.877 13.326 22.211 1.865 6.688 1.297 14.121 1.347 21.227.042 5.898-.428 11.816-.987 17.696-.31 3.247-1.186 6.454-1.997 9.631-.194.761-1.148 1.328-1.753 1.985-.729-.728-1.891-1.358-2.08-2.206-.262-1.17.253-2.5.36-3.769.526-6.16.711-12.366 1.596-18.472 2.207-15.233-6.451-27.644-10.219-41.326-.57-2.07.074-4.476.407-6.977z"/><path class="selected" fill="#000" stroke="none" d="M822.577 123.903c.072 19.324-2.312 37.864-7.05 56.05-4.966 19.062-9.716 38.216-15.682 56.972-7.118 22.376-16.524 43.88-28.84 63.984-1.086 1.774-2.745 3.198-4.137 4.784-.097-2.681-1.154-5.828-.12-7.963 3.909-8.07 8.985-15.588 12.732-23.724 9.297-20.181 17.222-40.95 22.976-62.415 4.281-15.972 7.564-32.218 11.089-48.385 3.288-15.081 4.496-30.382 3.996-45.805-.072-2.203-.931-4.4-.852-6.579.048-1.327 1.195-2.614 1.848-3.92 1.014 1.141 2.72 2.175 2.914 3.442.663 4.309.793 8.7 1.126 13.559z"/></svg>