<?xml version="1.0" encoding="utf-8"?><!DOCTYPE svg PUBLIC "-//W3C//DTD SVG 1.1//EN" "http://www.w3.org/Graphics/SVG/1.1/DTD/svg11.dtd"><svg version="1.1" id="Contours" xmlns="http://www.w3.org/2000/svg" xmlns:xlink="http://www.w3.org/1999/xlink" x="0px" y="0px" width="865.544250px" height="865.544250px" viewBox="-0.000009 0.000001 865.544250 889.973816" enable-background="new 0 0 865.544250 865.544250" xml:space="preserve" stroke="black" fill="none" stroke-linecap='round' stroke-linejoin='round'><path class="selected"  fill="#000000" opacity="1.000000" stroke="none" 
 	d="
M409.826975 637.652816 C401.576975 626.884078 393.791330 616.191817 385.479746 605.925337 C381.746530 601.314009 378.552744 595.193953 370.959360 595.926802 C370.051706 596.014449 368.972116 596.186873 368.317697 596.733626 C363.466623 600.786360 358.618296 604.850081 353.930124 609.088546 C345.537912 616.675582 337.378061 624.522444 328.906504 632.018294 C313.209055 645.907881 297.445200 659.725386 281.540476 673.376631 C269.670908 683.564437 257.494882 693.394515 245.537607 703.481429 C239.817148 708.306990 234.177011 713.239913 228.694406 718.332991 C217.110910 729.093611 205.702097 740.042220 194.113840 750.797591 C191.192392 753.509200 187.772470 755.675887 184.742441 758.280074 C179.019724 763.198409 178.426950 769.546248 180.644358 776.187667 C182.885752 782.900923 185.436838 789.534957 188.274790 796.018843 C192.166941 804.911360 196.989694 813.425521 200.454538 822.469283 C205.914804 836.720870 210.928842 851.169173 215.444406 865.747115 C218.136789 874.439070 212.971018 885.096541 205.125437 888.708358 C202.911264 889.727523 199.965708 890.302474 197.654917 889.773421 C186.311838 887.176985 175.566538 882.950301 165.356577 877.261824 C155.770334 871.920882 145.744150 867.351790 136.282114 861.810347 C125.764963 855.650923 115.483591 849.043502 105.427500 842.152632 C88.376352 830.468306 71.471079 818.562117 54.741770 806.422164 C48.976633 802.238631 43.815927 797.191634 38.561411 792.341597 C27.922739 782.522017 16.811045 773.114302 7.066904 762.464034 C1.211985 756.064681 -1.262259 747.635298 0.620310 738.150191 C2.589914 728.226119 10.200266 722.301436 15.482920 714.827315 C20.726755 707.408004 27.536936 701.094283 33.674448 694.308455 C46.396006 680.243148 59.187693 666.240584 71.834360 652.108260 C81.595896 641.199996 91.241953 630.186507 100.827890 619.123152 C113.029611 605.040816 125.082651 590.829573 137.273203 576.737410 C142.714182 570.447676 148.264109 564.248519 153.888620 558.122115 C162.666025 548.561324 171.647409 539.186263 180.345407 529.554793 C184.649362 524.788985 189.229929 520.041548 192.415171 514.549117 C197.668161 505.491194 202.011179 495.892928 206.514475 486.416182 C211.142649 476.676558 215.546640 466.829268 219.967722 456.992598 C223.566172 448.986067 226.920236 440.868025 230.609445 432.904463 C234.951975 423.530440 239.614206 414.304854 243.992441 404.946944 C246.732614 399.090316 249.091013 393.055342 251.821482 387.193892 C257.159494 375.734969 262.675119 364.358809 268.039560 352.911971 C269.999094 348.730513 271.734873 344.444289 273.577463 340.207900 C280.456735 324.391890 287.295969 308.558272 294.236643 292.769240 C297.584238 285.153762 300.575083 277.306288 304.711740 270.131331 C310.259653 260.508467 316.341379 251.119460 323.016306 242.248854 C326.807932 237.209975 332.101694 233.243514 336.966562 229.083663 C344.303232 222.810286 351.933359 216.880812 359.293772 210.634291 C365.380136 205.468947 371.354196 200.161177 377.195261 194.720229 C381.843515 190.390425 383.179636 181.535994 380.678903 175.429244 C379.978098 173.717971 379.937448 171.738784 379.574777 169.886244 C378.398142 163.875258 377.159555 157.875777 376.051401 151.852278 C375.448496 148.574965 375.169931 145.237563 374.555857 141.962783 C372.950693 133.402754 367.227548 129.556319 359.089426 127.810073 C349.980295 125.855513 340.999094 123.278762 332.007700 120.807204 C316.606211 116.573592 301.137277 112.538619 285.903574 107.760787 C278.602304 105.470839 271.289865 102.435027 264.862009 98.352217 C257.831797 93.886763 259.984629 80.509154 266.486399 77.023757 C270.786692 74.718489 275.611460 73.194243 280.370188 71.984221 C289.156381 69.750167 298.037424 67.856185 306.933847 66.098342 C314.985788 64.507353 323.117624 63.324370 331.200388 61.883605 C334.278391 61.334960 337.336496 60.644530 340.371042 59.888137 C348.219614 57.931807 356.173227 56.269728 363.820505 53.702437 C366.472666 52.812072 369.413034 50.003829 370.391367 47.387236 C374.497568 36.404509 377.909616 25.162291 381.577219 14.015532 C383.601023 7.864623 394.729685 -0.166856 401.782541 0.002639 C415.180490 0.324629 428.794870 -0.032777 441.873850 2.343672 C450.767404 3.959624 459.601877 2.237273 468.072580 4.131468 C477.346262 6.205184 486.871164 4.228865 495.706613 6.277693 C505.917185 8.645415 516.092111 6.180587 525.913645 8.149642 C535.364084 10.044295 545.005564 8.339949 554.041819 10.318099 C561.602976 11.973311 569.194406 10.222624 576.229196 12.168959 C584.448313 14.442992 593.719675 12.007888 601.086862 18.629897 C606.105173 23.140685 609.151438 28.151442 609.495798 34.623870 C609.858225 41.437468 609.575998 48.285338 609.577219 55.118224 C609.578073 60.432280 613.458444 66.024047 618.176706 67.922637 C632.746408 73.785582 647.356394 79.559706 661.791819 85.739821 C667.743235 88.287718 673.159250 92.065261 679.052561 94.774764 C686.595652 98.242797 685.988596 104.750991 685.475901 111.034468 C685.048166 116.276747 680.641550 119.174361 676.472727 120.707137 C669.934519 123.111067 662.935861 124.276412 656.114939 125.893721 C644.728220 128.593611 633.259470 130.979201 621.957102 133.992140 C614.262522 136.043349 612.117014 144.407241 617.682932 150.352523 C620.726389 153.603377 625.282053 155.557753 627.932810 159.030318 C632.445871 164.942458 637.840647 170.075453 639.915598 178.063796 C642.057199 186.307570 640.221872 192.971389 636.536447 199.728621 C633.482370 205.328444 628.072092 208.409774 622.535837 210.801680 C615.272653 213.939681 611.754343 218.873336 611.419870 226.871474 C611.213694 231.803115 609.544382 236.688460 608.390940 241.561263 C607.317209 246.097640 606.129099 250.610213 604.862741 255.096999 C602.381418 263.888716 596.408029 269.212111 588.259714 273.065810 C583.041452 275.533766 577.896311 275.787673 572.428171 275.962111 C556.809519 276.460280 541.191477 277.088423 525.589426 277.958052 C516.171823 278.482985 511.009470 288.002150 514.143015 298.044631 C514.982614 300.735610 515.682932 303.688216 515.477732 306.448653 C514.663278 317.403731 519.272287 326.464400 525.250070 334.920546 C528.503366 339.522811 533.546457 341.632064 539.291574 341.921004 C551.350901 342.527602 563.658029 341.937392 575.399362 344.222579 C591.050119 347.268599 606.577219 345.270919 622.134226 345.778578 C638.948679 346.327285 655.796213 345.770095 672.626047 345.971450 C678.913401 346.046645 684.342478 345.002608 689.670725 341.059676 C697.063913 335.588729 705.880808 332.768172 714.911081 330.905257 C719.826975 329.891158 724.776804 329.020156 729.649118 327.829665 C731.068674 327.482802 732.273630 326.257247 733.576975 325.434462 C732.599558 323.923903 731.853586 321.349715 730.606394 321.078353 C723.417307 319.514083 721.905466 312.864089 720.959787 308.003707 C719.018625 298.028517 718.526071 287.612776 718.796823 277.414473 C719.026438 268.756392 721.150827 260.146620 722.467234 251.520125 C723.135691 247.140334 723.707834 242.736586 724.613474 238.404250 C726.147043 231.067305 727.632761 223.701338 729.634958 216.485335 C733.776071 201.561293 737.345285 186.390120 742.779856 171.933425 C751.758371 148.049697 760.952951 124.041640 776.763132 103.589720 C780.876291 98.269118 786.840769 93.910781 792.805857 90.682906 C795.925730 88.994551 801.067819 90.049224 804.981882 91.070601 C810.000070 92.380034 814.903879 94.535994 819.458811 97.048842 C821.945505 98.420668 824.190988 100.972838 825.550241 103.522978 C833.319773 118.099837 830.765207 134.035842 830.261667 149.416091 C829.932444 159.474990 826.612131 169.442031 824.567575 179.437117 C822.274973 190.644850 820.575266 202.029494 817.415720 212.990706 C813.059275 228.104109 808.410349 243.241896 802.345896 257.723952 C796.099680 272.640242 787.797800 286.683486 780.802561 301.303572 C777.195993 308.841139 772.122141 315.078810 766.179270 320.711440 C764.014353 322.763289 761.332102 324.263228 758.926218 326.068770 C756.754587 327.698409 757.326120 329.013198 759.563059 329.885909 C761.860178 330.782027 764.227610 331.496627 766.534128 332.370040 C785.621042 339.598006 800.800608 351.554854 810.497141 369.715865 C814.469309 377.155318 817.717966 385.016219 817.591623 393.772139 C817.572946 395.067916 817.304392 396.643660 817.909983 397.618819 C821.915110 404.068343 818.063791 410.135848 816.038523 415.488082 C813.147653 423.128218 807.451242 429.643233 800.101633 433.697921 C792.148752 438.085494 784.263376 442.723311 774.860788 444.007979 C763.462839 445.565108 752.163523 447.860091 740.842966 449.950789 C739.213571 450.251631 737.057810 450.749861 736.249948 451.919539 C732.823313 456.880660 727.457102 456.335677 722.722971 456.773055 C714.338449 457.547530 713.608591 457.317977 712.743967 464.813399 C712.130319 470.131941 711.408274 475.900984 715.001291 480.780074 C715.861765 481.948714 717.113108 483.740889 718.089426 483.681441 C719.303537 483.607588 720.918405 482.135115 721.488718 480.872786 C723.705393 475.966292 725.578318 470.904280 727.575632 465.898665 C727.918039 465.040389 728.135446 464.109847 728.607370 463.332015 C729.079050 462.554610 729.797434 461.926863 730.407541 461.233504 C730.797312 462.072005 731.581980 462.943160 731.515818 463.743941 C730.838571 471.937911 726.924753 478.928939 722.365915 485.394576 C719.432199 489.555037 714.239694 489.075484 711.955515 484.604171 C709.145700 479.104415 707.219675 473.190047 709.154978 466.761153 C709.611032 465.245894 709.668650 463.525313 709.518259 461.936263 C709.357370 460.235640 708.733957 458.578780 708.312326 456.902816 C707.400583 458.645674 705.589670 460.467086 705.733835 462.117781 C706.335031 469.004317 701.572824 472.370955 696.840280 474.664107 C692.464426 476.784468 687.158640 477.407332 682.191721 477.803023 C669.992990 478.774825 657.736521 479.015425 645.535105 479.960921 C631.568918 481.043257 617.558664 482.035384 603.713694 484.063948 C591.620310 485.835921 579.460398 486.784224 567.407663 488.351119 C558.935007 489.452620 550.586008 489.452559 542.179148 489.894576 C533.268747 490.363143 527.698069 494.752669 524.522653 503.343489 C522.710764 508.245894 520.203806 512.889571 518.337595 517.774947 C517.817331 519.136946 517.921579 521.282332 518.671091 522.489913 C521.902536 527.696456 525.180735 532.926924 528.992136 537.710128 C538.020578 549.040755 547.443430 560.056258 556.551828 571.324507 C564.192575 580.777205 571.817209 590.256453 579.061838 600.011519 C583.913889 606.544966 588.156443 613.538008 592.549875 620.403365 C598.274973 629.349044 603.818674 638.410872 609.552072 647.351119 C615.724924 656.976668 622.022287 666.522322 628.274240 676.097029 C631.444895 680.952559 634.560495 685.846602 637.836618 690.630294 C641.926706 696.602645 648.697702 696.936141 654.828195 697.762618 C663.811472 698.973555 672.950022 698.984603 681.971384 699.972518 C691.286203 700.992537 700.698923 701.905684 709.777658 704.080550 C719.831125 706.488875 730.679026 705.975875 739.682932 712.780135 C746.856760 718.201277 749.900827 728.276046 745.299265 736.879866 C737.186838 752.048445 726.664987 765.293318 715.124948 777.864669 C708.262155 785.340621 701.954904 793.416732 694.488840 800.226302 C684.896921 808.974959 674.530954 816.902327 664.238474 824.846785 C655.852365 831.319808 647.373361 837.758589 638.414987 843.383406 C625.980783 851.190596 613.313669 858.677901 599.056833 862.988326 C588.174753 866.278487 577.431711 861.951583 571.607126 852.631697 C566.169382 843.930892 559.870920 835.746627 553.661692 827.554427 C544.499582 815.466536 535.022043 803.618209 525.790110 791.582503 C518.630686 782.248824 511.637766 772.787520 504.577951 763.377608 C495.612009 751.427046 486.614572 739.500045 477.702951 727.509200 C469.283884 716.181319 461.096506 704.678816 452.552317 693.447127 C444.129221 682.374739 435.299021 671.612960 426.814646 660.586287 C421.085398 653.140547 415.645944 645.471846 409.826975 637.652816 M630.576975 192.402816 C631.905832 187.344344 632.521189 182.465773 629.753000 177.483107 C624.957712 168.851699 617.357492 163.401808 609.444284 158.084395 C607.671945 156.893386 606.159616 154.444411 605.712351 152.324599 C604.628855 147.189315 604.339914 141.892134 603.551584 136.687331 C602.645456 130.704940 603.853952 126.642623 607.266184 125.935866 C618.947092 123.516463 630.674997 121.322890 642.350168 118.877120 C652.907907 116.665450 663.469187 114.428054 673.911569 111.745070 C676.066110 111.191512 677.702097 108.619918 679.576975 106.978377 C677.919016 105.286544 676.558054 102.968444 674.549387 102.016341 C667.599314 98.721801 660.427072 95.894576 653.333200 92.904509 C638.294260 86.565566 623.144846 80.469496 608.303293 73.698470 C605.463205 72.402754 600.498972 72.569533 600.485300 66.901396 C600.457590 55.316237 599.823191 43.733794 599.625681 32.147063 C599.559397 28.265639 598.182077 25.554534 594.264963 24.955199 C588.573069 24.084319 582.840036 23.398589 577.099924 22.947509 C570.420603 22.422621 563.699289 22.418944 557.023020 21.865370 C542.400339 20.652922 527.797556 19.202635 513.180857 17.915755 C504.797556 17.177687 496.406443 16.519606 488.012522 15.913909 C473.597971 14.873763 459.181711 13.854567 444.759714 12.923537 C437.739572 12.470366 430.693796 12.389281 423.681345 11.854171 C418.106516 11.428755 412.560129 10.604888 407.009104 9.895217 C396.439279 8.543868 392.133127 11.404097 389.524423 20.761870 C386.116587 32.986327 382.067209 45.036315 378.848093 57.306761 C377.666269 61.811614 374.700083 63.124098 371.118418 63.847838 C357.252024 66.649794 343.333506 69.192641 329.450388 71.913542 C310.962961 75.536818 292.466013 79.121474 274.041635 83.044478 C271.676523 83.548079 269.721811 85.979293 267.576975 87.517562 C269.448923 89.351302 271.007761 92.089202 273.246347 92.864531 C283.760202 96.505965 294.443369 99.665877 305.098337 102.891020 C328.350962 109.929305 351.651499 116.811843 374.841928 124.048232 C377.078256 124.746077 379.822763 127.180251 380.375193 129.314650 C382.535654 137.662123 383.874826 146.220137 385.585703 154.686507 C387.883921 166.059004 389.907358 177.503524 392.729074 188.746382 C394.003977 193.826155 391.172556 196.179885 388.255503 198.631972 C379.399362 206.076216 370.355112 213.296767 361.379404 220.598616 C354.275949 226.377333 346.995981 231.953841 340.114328 237.985213 C335.002756 242.465193 329.520578 246.923415 325.730600 252.440383 C309.692392 275.786696 298.838144 301.714461 288.695871 328.052779 C282.284494 344.702193 274.325449 360.760787 266.922129 377.021346 C261.749460 388.382491 256.262277 399.600264 251.057444 410.947188 C240.844980 433.211470 230.718454 455.515181 220.584177 477.815291 C217.143137 485.387068 214.456980 493.399459 210.209665 500.481124 C205.568491 508.219344 204.521189 517.735396 197.092417 524.177657 C191.236887 529.255660 186.574961 535.713668 181.405832 541.578902 C169.142710 555.493453 156.911203 569.435836 144.630136 583.334456 C138.902780 589.816329 133.049265 596.186812 127.324777 602.671065 C115.159922 616.450484 103.063913 630.290694 90.895212 644.066634 C85.058725 650.674056 79.058176 657.136946 73.242563 663.762313 C61.884714 676.701277 50.664377 689.761153 39.273081 702.670394 C30.413462 712.710677 21.143381 722.398970 12.536875 732.647750 C8.841379 737.048384 7.685923 742.291609 9.326853 748.608809 C11.209360 755.856368 16.925608 759.727523 21.203073 764.627425 C27.395761 771.721419 34.956613 777.646224 42.101694 783.877242 C50.878427 791.531295 59.387583 799.596541 68.797861 806.397139 C86.388559 819.109358 104.456125 831.171370 122.489084 843.259383 C145.726084 858.835799 170.663584 871.183882 196.647104 881.459822 C203.437204 884.145247 207.866709 881.315169 207.456613 874.060286 C207.183786 869.233992 206.479563 864.193099 204.737863 859.728377 C194.890024 834.483443 184.542856 809.433394 174.668039 784.198653 C172.250315 778.020308 170.452219 771.489058 169.306833 764.955611 C168.262583 758.998763 173.730417 756.693343 177.449045 753.460311 C189.123056 743.310836 200.657724 733.000960 212.235666 722.741133 C226.988169 709.668074 241.733164 696.586409 256.475656 683.502059 C268.419016 672.902083 280.342539 662.279708 292.295420 651.690474 C306.676157 638.950301 321.117197 626.277999 335.458750 613.493819 C345.951425 604.140608 356.315012 594.642745 366.755930 585.231368 C374.303110 578.428328 374.319223 578.442977 381.001840 585.831649 C381.874277 586.796187 382.790232 587.732650 383.565988 588.771651 C390.975168 598.695113 398.270700 608.704634 405.771677 618.557906 C414.953318 630.618941 424.394846 642.482527 433.554514 654.560103 C446.520212 671.656417 459.265695 688.919722 472.227976 706.018721 C483.207346 720.502120 494.441965 734.792098 505.416574 749.279158 C518.467356 766.506880 531.372385 783.845137 544.319528 801.151229 C556.118723 816.922957 567.930735 832.685408 579.650095 848.516280 C583.517527 853.740401 589.307199 857.242659 593.074045 855.823348 C596.380197 854.577803 599.598825 853.004866 602.673777 851.256209 C616.844919 843.197737 631.604319 835.958907 644.909616 826.649398 C659.876779 816.177230 674.121530 804.460433 687.540842 792.052474 C699.043039 781.417159 709.269358 769.324324 719.427561 757.339949 C726.373361 749.145369 732.565134 740.248030 738.468698 731.254500 C742.974558 724.390486 740.367746 721.450728 733.030588 719.151107 C726.142160 716.992171 718.592356 716.987288 711.356394 715.884200 C698.676218 713.951033 686.020822 711.854781 673.341013 709.918807 C664.073557 708.503707 654.762400 706.062483 645.509470 706.228621 C636.013254 706.399092 631.538889 702.241194 627.415842 694.528060 C621.179026 682.860335 613.740427 671.831282 606.735544 660.578658 C597.824045 646.262923 589.333811 631.650374 579.749948 617.796614 C568.644602 601.743392 556.839304 586.147872 544.798288 570.776290 C533.770334 556.697982 522.163523 543.062789 510.530100 529.473494 C505.274118 523.333724 505.180368 522.483687 509.673654 515.180464 C514.741526 506.943587 517.854929 497.865889 519.700266 488.325484 C520.016428 486.690535 521.809030 484.256087 523.164865 484.080062 C533.373972 482.754927 543.641916 481.876692 553.896433 480.911483 C561.448557 480.200667 569.017893 479.662337 576.562326 478.881636 C588.683420 477.627303 600.785837 476.192061 612.905100 474.919417 C620.118601 474.161971 627.363962 473.697310 634.568918 472.872603 C645.195383 471.656233 655.785227 470.116011 666.416086 468.942366 C674.283396 468.073836 682.210642 467.744979 690.075266 466.856612 C699.044138 465.843428 700.193796 463.691695 697.136911 454.948287 C696.473825 453.051741 696.153635 451.011946 695.316843 449.204268 C693.481027 445.239241 695.809641 444.226607 698.937082 443.929732 C706.819040 443.181624 714.723703 442.668990 722.601023 441.879927 C735.055979 440.632369 747.578440 439.749617 759.919748 437.764022 C773.290354 435.612837 786.449167 432.273726 797.637644 423.902205 C806.602732 417.194136 810.664011 407.487410 809.260691 397.151656 C806.972849 380.301009 799.654856 365.388106 785.737619 354.582289 C772.910959 344.623275 759.081247 337.169661 742.156687 337.915816 C736.458444 338.166976 730.698679 338.128554 725.086496 338.995314 C713.673899 340.757857 702.312204 343.452040 692.875681 350.370772 C686.285837 355.202437 679.720407 358.193038 671.534738 356.904616 C669.341623 356.559432 667.152414 356.012923 664.948801 355.939803 C652.590891 355.529677 640.229441 355.215346 627.868357 354.908278 C613.508615 354.551558 599.146555 354.284529 584.788523 353.868392 C581.253610 353.765944 577.736277 353.164839 574.202219 352.915267 C559.620188 351.885543 545.044992 350.451033 530.445749 350.122634 C524.511423 349.989180 521.160715 347.732253 518.571482 343.059584 C517.818186 341.700148 516.998117 340.377852 516.211496 339.036879 C511.461008 330.938552 505.177805 323.547377 506.437815 313.014418 C506.947580 308.753890 505.705637 304.312178 505.621408 299.945967 C505.466013 291.892714 505.176462 283.804610 505.770456 275.792403 C506.014475 272.503401 508.971018 270.138076 512.835764 269.889327 C522.560984 269.263411 532.275095 268.431777 542.006662 267.940993 C552.025461 267.435744 562.057688 267.050063 572.087595 266.945906 C587.593698 266.784835 594.989817 260.484481 597.596018 246.078231 C599.499338 235.557112 601.604441 225.072676 603.566355 214.561934 C604.690256 208.540206 607.815256 205.004744 614.194773 203.765273 C620.822092 202.477706 626.632883 199.223128 630.576975 192.402816 M826.576975 141.402816 C825.941233 130.784682 828.340891 119.948897 823.658274 109.614852 C821.315622 104.444625 816.654001 102.026717 812.811960 105.312911 C808.789987 108.752944 804.706247 112.394911 801.678049 116.676161 C787.351145 136.931899 777.394480 159.449446 769.719431 182.876540 C763.357370 202.295973 757.869821 222.027388 752.734445 241.812575 C750.163523 251.718123 748.860178 262.008498 747.698191 272.206282 C746.765695 280.388289 746.583078 288.697280 746.690500 296.941817 C746.763620 302.562361 747.328928 308.315810 748.701975 313.750197 C751.290232 323.994704 757.005075 322.032485 762.182810 317.616072 C770.031443 310.921431 776.193552 302.623244 780.567209 293.297957 C788.151682 277.126509 795.861765 260.966323 802.358225 244.347548 C807.355173 231.564681 810.892038 218.172103 814.479685 204.889022 C817.612741 193.289443 820.177805 181.516677 822.490183 169.721663 C824.259714 160.695235 825.243601 151.514785 826.576975 141.402816 M738.076975 313.902816 C740.777048 309.704726 740.224314 305.368544 736.753733 302.881087 C735.928049 302.289351 734.558786 301.043959 734.708078 300.754958 C735.274973 299.658400 736.226023 298.587722 737.301218 297.985305 C738.061838 297.559066 739.284494 298.051436 740.243357 297.854079 C740.963449 297.705886 741.591989 297.113173 742.261301 296.718428 C741.882761 296.129500 741.641550 295.297560 741.102365 294.993025 C738.548777 293.550734 735.789499 292.437331 733.371164 290.809127 C732.441355 290.183028 732.222483 288.501052 731.679636 287.300124 C732.935007 286.957228 734.185129 286.374556 735.447214 286.347274 C736.458933 286.325423 737.564402 287.396895 738.484568 287.223036 C739.594675 287.013350 740.553049 286.000838 741.576975 285.335799 C740.234445 283.858138 739.098215 282.080611 737.497141 280.978591 C735.490305 279.597396 733.037790 278.880233 730.917063 277.638320 C730.271067 277.259963 729.587473 275.887923 729.814402 275.343733 C730.098459 274.662520 731.353464 273.908431 732.102365 273.989424 C734.262644 274.223067 736.492746 274.585829 738.484201 275.408827 C740.940378 276.423842 742.181345 275.792830 742.562937 273.322676 C743.604319 266.580519 744.308664 259.774550 745.634104 253.090529 C748.220896 240.045088 750.283152 226.805831 754.127390 214.121108 C759.530222 196.294020 766.364450 178.901046 772.575022 161.318312 C777.490671 147.401473 783.998239 134.270827 792.072336 121.922225 C796.372385 115.345595 796.399240 115.386428 791.687326 110.482161 C791.001047 109.767714 790.527902 108.848342 789.956003 108.023818 C791.133860 107.650130 792.378488 106.828597 793.476023 106.992415 C796.073313 107.380233 798.581003 108.338088 801.169016 108.837264 C801.892893 108.976882 802.770090 108.322371 803.576975 108.032180 C802.994577 106.989058 802.655100 105.377944 801.785593 105.006087 C798.817087 103.736434 795.720407 102.393096 792.563425 102.031554 C788.596750 101.577254 784.284616 100.931151 781.511911 105.410903 C776.985422 112.724349 771.395334 119.502394 767.753122 127.214339 C760.397653 142.789748 753.693674 158.701583 747.414255 174.745955 C743.481882 184.793349 740.725534 195.308852 737.602976 205.663008 C734.830515 214.856276 732.178537 224.089156 729.674875 233.358992 C728.411814 238.034926 727.286203 242.790785 726.654856 247.583785 C725.859323 253.622969 725.700754 259.743392 725.138376 265.816848 C724.725534 270.272933 723.667673 274.710128 723.671213 279.155165 C723.677805 287.512709 724.264963 295.869063 724.569284 304.227400 C724.771677 309.785536 731.667795 315.209792 738.076975 313.902816 z"/><path class="selected"  fill="#000000" opacity="1.000000" stroke="none" 
 	d="
M846.326975 92.152800 C850.995432 100.156233 848.985178 108.947219 850.335642 117.198073 C850.980905 121.140212 849.145944 125.520583 848.209909 129.651656 C848.081125 130.219649 846.658518 130.765822 845.822702 130.784468 C845.421945 130.793441 844.586374 129.513289 844.638498 128.873244 C845.331491 120.370162 844.655954 112.048384 841.567697 104.031935 C838.412790 95.842589 836.574900 87.054137 830.455515 80.211226 C828.688547 78.235121 827.126047 75.980941 825.943064 73.617446 C825.343332 72.418929 825.796701 70.693267 825.773996 69.205916 C827.378733 69.275328 829.718454 68.688124 830.465280 69.524062 C834.391184 73.918303 838.077585 78.555220 841.511667 83.348296 C843.377756 85.953032 844.576975 89.035674 846.326975 92.152800 z"/><path class="selected"  fill="#000000" opacity="1.000000" stroke="none" 
 	d="
M850.826975 54.152816 C858.394113 59.653517 861.828318 68.029799 864.153147 76.364470 C866.018259 83.051955 865.450388 90.485350 865.500315 97.590972 C865.541819 103.489089 865.072458 109.407363 864.513010 115.286605 C864.203928 118.534285 863.327341 121.741469 862.516184 124.918257 C862.321848 125.679335 861.367868 126.246474 860.763254 126.902846 C860.034494 126.175460 858.871897 125.545027 858.682321 124.697097 C858.420725 123.526900 858.935861 122.196242 859.043894 120.928023 C859.568552 114.768843 859.754099 108.562087 860.638742 102.456053 C862.845896 87.222716 854.187693 74.811644 850.420359 61.130095 C849.850168 59.059081 850.494455 56.653594 850.826975 54.152816 z"/><path class="selected"  fill="#000000" opacity="1.000000" stroke="none" 
 	d="
M822.576975 123.902816 C822.648508 143.227034 820.264841 161.766555 815.526682 179.953444 C810.560617 199.015212 805.810617 218.168715 799.844553 236.925368 C792.726999 259.301345 783.321482 280.805678 771.005564 300.908736 C769.918772 302.682906 768.260446 304.106795 766.867502 305.693373 C766.770578 303.011519 765.714060 299.864882 766.747629 297.730483 C770.656565 289.659255 775.732736 282.141799 779.480295 274.006270 C788.776926 253.824629 796.701853 233.055464 802.455881 211.590560 C806.737497 195.618605 810.019846 179.373336 813.544992 163.205702 C816.833322 148.124800 818.040720 132.823531 817.540598 117.400557 C817.469065 115.198256 816.609568 113.000899 816.688547 110.822035 C816.736765 109.495009 817.883860 108.207869 818.537302 106.902816 C819.550608 108.043349 821.256174 109.077376 821.450998 110.343856 C822.113840 114.652632 822.243723 119.043379 822.576975 123.902816 z"/></svg>